<svg xmlns="http://www.w3.org/2000/svg" width="1200" height="220" viewBox="0 0 1200 220">
  <defs>
    <linearGradient id="bg" x1="0" y1="0" x2="0" y2="1">
      <stop offset="0%" stop-color="#6c3114"/>
      <stop offset="100%" stop-color="#3b1708"/>
    </linearGradient>
    <linearGradient id="gold" x1="0" y1="0" x2="1" y2="1">
      <stop offset="0%" stop-color="#f8e3a0"/>
      <stop offset="45%" stop-color="#d89a33"/>
      <stop offset="100%" stop-color="#8f5518"/>
    </linearGradient>
  </defs>
  <rect x="8" y="18" rx="34" ry="34" width="1184" height="180" fill="url(#bg)" stroke="url(#gold)" stroke-width="10"/>
  <rect x="28" y="34" rx="24" ry="24" width="1144" height="148" fill="rgba(255,255,255,0.02)" stroke="#8a4d18" stroke-width="2"/>
  <path d="M540 18 L600 0 L660 18 L634 40 H566 Z" fill="url(#gold)" opacity="0.95"/>
  <circle cx="54" cy="18" r="10" fill="#f6d37a"/>
  <circle cx="1146" cy="18" r="10" fill="#f6d37a"/>
  <g fill="#f6d37a" opacity="0.95">
    <rect x="74" y="8" width="14" height="26" rx="6"/>
    <path d="M81 0 C90 8,90 18,81 22 C72 18,72 8,81 0Z"/>
    <rect x="1112" y="8" width="14" height="26" rx="6"/>
    <path d="M1119 0 C1128 8,1128 18,1119 22 C1110 18,1110 8,1119 0Z"/>
  </g>
</svg>
